
<svg xmlns="http://www.w3.org/2000/svg" version="1.1" xmlns:xlink="http://www.w3.org/1999/xlink" preserveAspectRatio="none" x="0px" y="0px" width="320px" height="259px" viewBox="0 0 320 259">
<defs>
<g id="Layer0_0_FILL">
<path fill="#FF6500" stroke="none" d="
M 106.95 164.75
L 106.95 191.95 146.6 191.95 146.6 164.75 137.4 164.75 106.95 164.75
M 66.95 164.75
L 66.95 191.95 106.95 191.95 106.95 164.75 66.95 164.75
M 30.6 164.75
L 30.6 191.95 66.95 191.95 66.95 164.75 41.75 164.75 30.6 164.75
M 293.4 136.7
L 255.85 136.7 255.85 164.75 293.4 164.75 293.4 136.7
M 293.4 136.7
L 293.4 108.7 255.85 108.7 255.85 136.7 293.4 136.7
M 179.7 164.75
L 179.7 136.7 137.4 136.7 137.4 164.75 146.6 164.75 179.7 164.75
M 218.35 164.75
L 221.65 164.75 255.85 164.75 255.85 136.7 218.35 136.7 218.35 164.75
M 188.85 164.75
L 188.85 191.95 206.9 191.95 221.65 164.75 218.35 164.75 188.85 164.75
M 179.7 164.75
L 188.85 164.75 218.35 164.75 218.35 136.7 179.7 136.7 179.7 164.75
M 188.85 164.75
L 179.7 164.75 146.6 164.75 146.6 191.95 188.85 191.95 188.85 164.75
M 179.7 136.7
L 179.7 108.7 159.35 108.7 139.7 108.7 137.4 108.7 137.4 115.6 137.4 136.7 179.7 136.7
M 218.35 136.7
L 218.35 108.7 179.7 108.7 179.7 136.7 218.35 136.7
M 218.35 108.7
L 218.35 136.7 255.85 136.7 255.85 108.7 218.35 108.7 Z"/>

<path fill="#97E3F1" stroke="none" d="
M 139.7 108.7
L 139.7 99.2 123.3 99.2 123.3 115.6 137.4 115.6 137.4 108.7 139.7 108.7
M 90.55 131.3
L 90.55 147.7 106.95 147.7 106.95 131.3 90.55 131.3
M 106.95 115.6
L 106.95 99.2 90.55 99.2 90.55 115.6 106.95 115.6
M 76.5 147.7
L 76.5 131.3 60.1 131.3 60.1 147.7 76.5 147.7
M 76.5 115.6
L 76.5 99.2 60.1 99.2 60.1 115.6 76.5 115.6 Z"/>

<path fill="#FFFFFF" stroke="none" d="
M 41.75 164.75
L 66.95 164.75 106.95 164.75 137.4 164.75 137.4 136.7 137.4 115.6 123.3 115.6 123.3 99.2 139.7 99.2 139.7 108.7 159.35 108.7 159.35 79.9 41.75 79.9 41.75 164.75
M 76.5 99.2
L 76.5 115.6 60.1 115.6 60.1 99.2 76.5 99.2
M 76.5 131.3
L 76.5 147.7 60.1 147.7 60.1 131.3 76.5 131.3
M 106.95 99.2
L 106.95 115.6 90.55 115.6 90.55 99.2 106.95 99.2
M 90.55 147.7
L 90.55 131.3 106.95 131.3 106.95 147.7 90.55 147.7
M 99.7 61.85
L 99.7 42.85 51.55 42.85 51.55 61.85 99.7 61.85
M 142 61.85
L 142 37.95 121.35 37.95 121.35 61.85 142 61.85
M 142 37.95
L 151.5 37.95 151.5 17.95 111.2 17.95 111.2 37.95 121.35 37.95 142 37.95 Z"/>

<path fill="#C4C8CC" stroke="none" d="
M 221.65 164.75
L 206.9 191.95 188.85 191.95 146.6 191.95 106.95 191.95 66.95 191.95 30.6 191.95 8.05 191.95
Q 8 192.7 8 193.45 8 217.8 25.2 235 42 251.8 65.55 252.25
L 227.85 252.25
Q 262.35 251.65 286.9 227.1 312.05 201.95 312.05 166.4 312.05 165.55 312.05 164.75
L 293.4 164.75 255.85 164.75 221.65 164.75
M 241.5 194.05
L 241.5 188.15 247.4 188.15 247.4 194.05 241.5 194.05
M 260 188.15
L 265.9 188.15 265.9 194.05 260 194.05 260 188.15
M 278.9 194.05
L 278.9 188.15 284.8 188.15 284.8 194.05 278.9 194.05 Z"/>

<path fill="#565A60" stroke="none" d="
M 278.9 188.15
L 278.9 194.05 284.8 194.05 284.8 188.15 278.9 188.15
M 265.9 188.15
L 260 188.15 260 194.05 265.9 194.05 265.9 188.15
M 241.5 188.15
L 241.5 194.05 247.4 194.05 247.4 188.15 241.5 188.15 Z"/>

<path fill="#C2C6CD" stroke="none" d="
M 171.8 79.9
L 171.8 61.85 142 61.85 121.35 61.85 99.7 61.85 51.55 61.85 27.65 61.85 27.65 79.9 41.75 79.9 159.35 79.9 171.8 79.9
M 287.8 78.4
L 263.25 78.4 263.25 101.5 287.8 101.5 287.8 78.4
M 263.25 55.3
L 263.25 78.4 287.8 78.4 287.8 55.3 263.25 55.3
M 263.25 29.55
L 263.25 41.2 263.25 55.3 287.8 55.3 287.8 29.75 263.25 29.55
M 263.25 29.55
L 263.25 17.95 196.4 17.95 196.4 41.2 222.95 41.2 263.25 41.2 263.25 29.55
M 287.8 29.75
L 287.8 7.45 263.25 7.45 263.25 17.95 263.25 29.55 287.8 29.75 Z"/>
</g>

<path id="Layer0_0_1_STROKES" stroke="#565A60" stroke-width="9" stroke-linejoin="round" stroke-linecap="round" fill="none" d="
M 222.95 41.2
L 196.4 41.2 196.4 17.95 263.25 17.95 263.25 7.45 287.8 7.45 287.8 29.75 287.8 55.3 287.8 78.4 287.8 101.5 263.25 101.5 263.25 78.4 263.25 55.3 263.25 41.2 222.95 41.2 222.95 78.55
M 263.25 17.95
L 263.25 29.55 287.8 29.75
M 263.25 29.55
L 263.25 41.2
M 287.8 55.3
L 263.25 55.3
M 287.8 78.4
L 263.25 78.4
M 142 61.85
L 171.8 61.85 171.8 79.9 159.35 79.9 159.35 108.7 179.7 108.7 218.35 108.7 255.85 108.7 293.4 108.7 293.4 136.7 293.4 164.75 312.05 164.75
Q 312.05 165.55 312.05 166.4 312.05 201.95 286.9 227.1 262.35 251.65 227.85 252.25
L 65.55 252.25
Q 42 251.8 25.2 235 8 217.8 8 193.45 8 192.7 8.05 191.95
L 30.6 191.95 30.6 164.75 41.75 164.75 41.75 79.9 27.65 79.9 27.65 61.85 51.55 61.85 51.55 42.85 99.7 42.85 99.7 61.85 121.35 61.85 121.35 37.95 111.2 37.95 111.2 17.95 151.5 17.95 151.5 37.95 142 37.95 142 61.85 121.35 61.85
M 211.15 79.2
L 233.45 79.2
M 218.35 108.7
L 218.35 136.7 255.85 136.7 255.85 108.7
M 179.7 108.7
L 179.7 136.7 218.35 136.7 218.35 164.75 221.65 164.75 255.85 164.75 255.85 136.7 293.4 136.7
M 188.85 191.95
L 188.85 164.75 179.7 164.75 146.6 164.75 146.6 191.95 188.85 191.95 206.9 191.95 221.65 164.75
M 241.5 188.15
L 247.4 188.15 247.4 194.05 241.5 194.05 241.5 188.15 Z
M 218.35 164.75
L 188.85 164.75
M 179.7 136.7
L 179.7 164.75
M 260 188.15
L 265.9 188.15 265.9 194.05 260 194.05 260 188.15 Z
M 278.9 188.15
L 284.8 188.15 284.8 194.05 278.9 194.05 278.9 188.15 Z
M 255.85 164.75
L 293.4 164.75
M 142 37.95
L 121.35 37.95
M 60.1 99.2
L 76.5 99.2 76.5 115.6 60.1 115.6 60.1 99.2 Z
M 60.1 131.3
L 76.5 131.3 76.5 147.7 60.1 147.7 60.1 131.3 Z
M 41.75 164.75
L 66.95 164.75 66.95 191.95 106.95 191.95 106.95 164.75 66.95 164.75
M 30.6 191.95
L 66.95 191.95
M 137.4 115.6
L 123.3 115.6 123.3 99.2 139.7 99.2 139.7 108.7 159.35 108.7
M 137.4 115.6
L 137.4 108.7 139.7 108.7
M 106.95 164.75
L 137.4 164.75 137.4 136.7 137.4 115.6
M 90.55 99.2
L 106.95 99.2 106.95 115.6 90.55 115.6 90.55 99.2 Z
M 90.55 131.3
L 106.95 131.3 106.95 147.7 90.55 147.7 90.55 131.3 Z
M 146.6 164.75
L 137.4 164.75
M 106.95 191.95
L 146.6 191.95
M 99.7 61.85
L 51.55 61.85
M 159.35 79.9
L 41.75 79.9
M 179.7 136.7
L 137.4 136.7"/>
</defs>

<g transform="matrix( 1, 0, 0, 1, 0,0) ">
<use xlink:href="#Layer0_0_FILL"/>

<use xlink:href="#Layer0_0_1_STROKES"/>
</g>
</svg>
