<?xml version="1.0" encoding="UTF-8" standalone="no"?><!DOCTYPE svg PUBLIC "-//W3C//DTD SVG 1.1//EN" "http://www.w3.org/Graphics/SVG/1.1/DTD/svg11.dtd"><svg width="100%" height="100%" viewBox="0 0 417 417" version="1.1" xmlns="http://www.w3.org/2000/svg" xmlns:xlink="http://www.w3.org/1999/xlink" xml:space="preserve" xmlns:serif="http://www.serif.com/" style="fill-rule:evenodd;clip-rule:evenodd;stroke-linejoin:round;stroke-miterlimit:2;"><circle cx="225" cy="225" r="116.667" style="fill:#131928;"/><path d="M208.333,408.333c110.457,0 200,-89.543 200,-200c0,-110.457 -89.543,-200 -200,-200c-110.457,-0 -200,89.543 -200,200c-0,110.457 89.543,200 200,200Zm133.334,-183.333c0,64.433 -52.233,116.667 -116.667,116.667c-64.433,0 -116.667,-52.233 -116.667,-116.667c0,-11.957 1.799,-23.494 5.14,-34.355c9.146,20.257 29.523,34.355 53.193,34.355c32.217,0 58.333,-26.117 58.333,-58.333c0,-23.67 -14.098,-44.047 -34.355,-53.193c10.861,-3.342 22.397,-5.14 34.355,-5.14c64.433,0 116.667,52.233 116.667,116.667Z" style="fill:url(#_Linear1);"/><path d="M341.668,225c0,64.433 -52.233,116.667 -116.667,116.667c-63.068,0 -114.447,-50.043 -116.597,-112.587c-0.047,1.412 -0.071,2.83 -0.071,4.254c0,69.035 55.965,125 125,125c69.035,0 125,-55.965 125,-125c0,-69.035 -55.965,-125 -125,-125c-1.418,0 -2.83,0.024 -4.237,0.07c62.537,2.157 112.571,53.534 112.571,116.596Z" style="fill:#131928;fill-opacity:0.2;"/><path d="M208.333,58.333c-82.843,0 -150,67.157 -150,150c-0,9.205 -7.462,16.667 -16.667,16.667c-9.205,0 -16.667,-7.462 -16.667,-16.667c0,-101.252 82.081,-183.333 183.333,-183.333c9.205,0 16.667,7.462 16.667,16.667c0,9.205 -7.462,16.667 -16.667,16.667Z" style="fill:url(#_Linear2);"/><defs><linearGradient id="_Linear1" x1="0" y1="0" x2="1" y2="0" gradientUnits="userSpaceOnUse" gradientTransform="matrix(289.583333,289.583342,-289.583342,289.583333,208.333333,8.333325)"><stop offset="0" style="stop-color:#c395fc;stop-opacity:1"/><stop offset="1" style="stop-color:#4f65f5;stop-opacity:1"/></linearGradient><linearGradient id="_Linear2" x1="0" y1="0" x2="1" y2="0" gradientUnits="userSpaceOnUse" gradientTransform="matrix(0,166.666667,-166.666667,0,125,41.666667)"><stop offset="0" style="stop-color:#fff;stop-opacity:0.4"/><stop offset="1" style="stop-color:#fff;stop-opacity:0"/></linearGradient></defs></svg>